<svg xmlns="http://www.w3.org/2000/svg" viewBox="0 0 209.8 53.6" width="250" height="64">
  <style>
    .st0{fill:#FFFFFF;}
  </style>
  <g id="web__design">
    <path class="st0" d="M113.8 48.9c.3 0 .6-.2.9-.4.3-.3.5-.6.8-1-.1-.6-.2-1-.3-1.4-.1-.3-.1-.7-.1-.9s-.1-.6-.1-.9c0-.3-.1-.8-.1-1.4-.1-.4 0-.7.1-1 .1-.3.3-.5.5-.7.2-.2.5-.4.8-.5.3-.1.7-.2 1-.3.3-.1.6-.1.7 0 .2 0 .3.1.4.2.1.1.1.2.2.3v.2c0 .2 0 .4-.1.6 0 .2-.1.5-.1.9s.1.8.1 1.2c0 .4.1.9.1 1.4s.1.9.1 1.3.1.8.2 1.1.2.6.3.8c.1.2.2.3.4.3s.4-.1.6-.2.4-.3.6-.6c.2-.2.3-.5.5-.8.1-.3.3-.6.4-.9-.3-.1-.5-.2-.7-.3-.2-.1-.3-.3-.4-.5-.1-.2-.2-.4-.2-.7s-.1-.5-.1-.8v-.7c0-.2.1-.4.1-.6.1-.4.3-.7.5-.9s.4-.5.6-.6.4-.3.6-.3c.2-.1.4-.1.5-.1.3 0 .5.1.6.3.1.2.2.5.3.8s.1.7.1 1.1v1c.2.1.3.1.5.1h.4c.1 0 .3-.1.4-.2.1-.1.3-.1.4-.2.3-.2.6-.4.8-.5.2-.2.4-.3.5-.4.1-.1.2-.2.3-.2.1 0 .2-.1.3 0 .1 0 .1.1.2.2 0 .1.1.2 0 .3 0 .1 0 .2-.1.3 0 .1-.1.2-.2.3l-.3.3c-.1.1-.2.2-.2.3l-.2.2c-.2.2-.5.5-.9.7-.3.3-.8.5-1.4.8-.2.1-.3.1-.5.2-.2 0-.3.1-.5.1-.2.5-.5 1.1-.8 1.7-.3.6-.7 1.2-1.1 1.7-.4.5-.9.9-1.4 1.3-.5.4-1 .5-1.6.6-.3 0-.5 0-.7-.2s-.4-.3-.6-.5-.3-.5-.5-.7-.3-.5-.4-.8c-.3.3-.5.6-.8.9s-.6.6-.9.8c-.3.2-.6.4-1 .5-.3.1-.7.2-1 .2-.4 0-.8-.1-1-.4-.3-.3-.5-.6-.7-1.1s-.3-.9-.5-1.3c-.1-.5-.2-.8-.3-1.1-.1-.2-.1-.5-.2-.8-.1-.3-.1-.6-.2-1s-.1-.7-.2-1c0-.4-.1-.7-.1-1 0-.2-.1-.4-.1-.6 0-.2-.1-.4-.1-.6 0-.3 0-.6.2-.8.1-.2.3-.5.5-.6.2-.2.4-.3.7-.4.3-.1.5-.2.7-.3.4-.1.7-.1.9-.1s.4.1.5.2c.1.1.2.2.2.3v.3c0 .2 0 .4-.1.6 0 .2-.1.5-.1.9V44c.1.6.1 1.2.2 1.8s.1 1.2.2 1.7.2.9.3 1.3c.3 0 .5.1.7.1z"/>
    <path class="st0" d="M128.6 45.6c0 .6.1 1.2.3 1.6.2.4.4.8.7 1 .3.2.5.4.8.5.3.1.6.1.8.1.3 0 .6-.1.9-.2.3-.1.6-.3.8-.5.2-.2.5-.4.7-.6.2-.2.4-.5.5-.7.2-.3.3-.5.4-.8.1-.2.2-.4.3-.5.1-.1.1-.3.2-.3.1-.1.1-.1.2-.1s.2 0 .2.1.1.2.1.3v.4s0 .2-.1.3c0 .2-.1.4-.2.6-.1.4-.3.8-.6 1.2-.3.5-.6.9-1 1.3s-.9.8-1.4 1.1c-.6.3-1.2.5-1.9.5-.5 0-1.1-.1-1.7-.3-.6-.2-1.1-.5-1.6-.9s-.9-.9-1.2-1.5-.5-1.2-.5-1.9c0-.6 0-1.3.2-1.9.2-.6.4-1.2.7-1.8s.7-1 1.2-1.4c.5-.4 1-.7 1.6-.9.3-.1.7-.2 1.1-.2.5 0 1 0 1.5.2s.9.4 1.2.7c.3.3.6.7.8 1.1s.3 1 .3 1.6c0 .3 0 .6-.1.9-.1.3-.2.6-.3.8l-.6.6c-.3.2-.6.2-1 .3-.4 0-.7 0-1.1-.1-.4-.1-.7-.1-1-.2-.3-.1-.5-.2-.7-.3-.2-.1-.3-.2-.3-.3v-.2c0-.1.1-.1.1-.2s.1-.1.1-.2c.1 0 .1-.1.2-.1h1.5c.3 0 .5 0 .6-.1.2-.1.2-.3.2-.6 0-.2 0-.4-.1-.7 0-.3-.1-.6-.2-.9s-.2-.6-.4-.8c-.2-.2-.4-.3-.7-.3-.3 0-.6.1-.8.4-.2.3-.4.6-.6 1s-.2.8-.3 1.3c.2.7.2 1.1.2 1.6z"/>
    <path class="st0" d="M144.7 44.9c0 .6-.1 1.3-.4 1.9-.2.6-.5 1.2-1 1.7-.4.5-.9.9-1.5 1.3s-1.2.5-1.9.6c-.3 0-.6 0-.9-.1s-.5-.2-.7-.4c-.1.2-.2.3-.3.4-.1.1-.3.2-.4.2s-.3.1-.5.1H136.2c-.1 0-.2-.1-.3-.2-.2-.2-.2-.4-.3-.7l-.3-4.5c-.1-1.5-.2-2.9-.2-4.4-.1-1.5-.1-2.9-.2-4.4-.1-1.5-.1-3-.2-4.5v-1.2c0-.4.1-.7.3-.9.2-.3.4-.5.7-.6.3-.2.7-.3 1.3-.4.3-.1.5 0 .7.1.2.1.3.2.5.5.1.2.2.5.2.8 0 .9.1 1.7 0 2.4v2.2c0 .7 0 1.4-.1 2.1v11.2c0 .2.1.4.2.6.1.2.2.3.3.5s.3.2.5.2.3 0 .5-.2c.2-.1.4-.3.5-.6s.3-.5.4-.9c.1-.3.2-.7.2-1.1 0-.4.1-.8 0-1.2l3.8-.5zm-5-4c.1-.2.3-.4.5-.5l.6-.3c.2-.1.4-.1.7-.1.2 0 .4.1.7.2.6.3 1 .7 1.4 1.2.4.5.7 1 1 1.7.2 0 .3 0 .5-.1l.6-.3c.2-.1.4-.3.6-.4.2-.1.3-.3.5-.3.2-.2.4-.3.5-.4.1-.1.2-.1.4-.1.1 0 .1.1.2.2 0 .1.1.2 0 .3 0 .2-.1.5-.2.7-.1.2-.3.4-.5.6-.3.3-.7.7-1.1 1s-.9.6-1.4.8v.1l-3.6.7v-.7l-.1-.1-.1-.1c-.2-.1-.3-.3-.5-.4-.2-.2-.4-.3-.6-.5l-.5-.5c-.1-.2-.2-.3-.2-.5 0-.5.1-.8.2-1.1.1-.6.3-.9.4-1.1z"/>
    <path class="st0" d="M155.2 28.8c0-.5.1-.8.3-1.1.2-.3.5-.4 1-.3.5.1 1 .2 1.3.3.3.1.6.3.7.6s.3.5.3.9c.1.3.1.8.1 1.2v1.8c0 1.5.1 2.9.1 4.3.1 1.4.1 2.8.1 4.1 0 .9 0 1.7.1 2.5 0 .7.1 1.4.1 2.1 0 .6.1 1.1.3 1.4s.4.5.6.4c.2 0 .4-.1.6-.2.2-.2.4-.3.6-.6.2-.2.4-.5.5-.7.2-.3.3-.5.4-.7l.3-.6c.3-.2.4-.2.4-.2.1 0 .1 0 .2.1s.1.2.1.3V45c-.1.2-.1.5-.3.8-.1.3-.3.6-.5 1-.2.3-.4.7-.7 1-.3.3-.5.6-.9.9s-.7.5-1 .7c-.4.2-.8.3-1.2.3-.4 0-.7-.1-.9-.2-.3-.2-.5-.4-.6-.6-.3.3-.5.6-.9.8-.3.2-.7.3-1.2.3-.4 0-.8 0-1.1-.1-.4-.1-.8-.2-1.2-.4s-.8-.5-1.1-.8-.6-.8-.8-1.3c-.2-.5-.3-1.1-.4-1.8 0-.7.1-1.4.3-2.2.2-.7.5-1.4.9-1.9.4-.6.9-1 1.5-1.4.6-.4 1.3-.6 2-.6h.8c-.1-1-.2-2.2-.3-3.6-.1-1.4-.3-2.9-.4-4.8 0-.3 0-.7-.1-1 .1-.6 0-.9 0-1.3zm1.4 18.4c-.1-.5-.2-1-.2-1.5-.1-.5-.1-1-.1-1.5s-.1-1-.1-1.6 0-1.1-.1-1.6c-.1-.2-.2-.4-.3-.5-.1-.1-.3-.2-.4-.2-.3 0-.6.1-.8.4s-.4.6-.6 1c-.1.4-.2.8-.3 1.3-.1.5-.1 1-.1 1.4 0 .7.1 1.2.3 1.7.2.4.3.8.6 1.1.2.3.4.4.7.5.2.1.5.1.7.1.1 0 .3-.1.4-.2s.2-.1.3-.4z"/>
    <path class="st0" d="M165.2 44.1c0 .6.1 1.2.3 1.6.2.4.4.8.7 1s.5.4.8.5c.3.1.6.1.8.1.3 0 .6-.1.9-.2.3-.1.6-.3.8-.5s.5-.4.7-.6c.2-.2.4-.5.5-.7.2-.3.3-.5.4-.8.1-.2.2-.4.3-.5.1-.1.1-.3.2-.3.1-.1.1-.1.2-.1s.2 0 .2.1.1.2.1.3v.4c0 .1 0 .2-.1.3 0 .2-.1.4-.2.6-.1.4-.3.8-.6 1.2-.3.5-.6.9-1 1.3s-.9.8-1.4 1.1c-.6.3-1.2.5-1.9.5-.5 0-1.1-.1-1.7-.3-.6-.2-1.1-.5-1.6-.9s-.9-.9-1.2-1.5c-.3-.6-.5-1.2-.5-1.9 0-.6 0-1.3.2-1.9.2-.6.4-1.2.7-1.8.3-.5.7-1 1.2-1.4s1-.7 1.6-.9c.3-.1.7-.2 1.1-.2.5 0 1 0 1.5.2.5.1.9.4 1.2.7s.6.7.8 1.1c.2.5.3 1 .3 1.6 0 .3 0 .6-.1.9s-.2.6-.3.8l-.6.6s-.6.2-1 .3c-.4 0-.7 0-1.1-.1-.4-.1-.7-.1-1-.2-.3-.1-.5-.2-.7-.3-.2-.1-.3-.2-.3-.3v-.2c0-.1.1-.1.1-.2s.1-.1.1-.2c.1 0 .1-.1.2-.1h1.5c.3 0 .5 0 .6-.1.2-.1.2-.3.2-.6 0-.2 0-.4-.1-.7 0-.3-.1-.6-.2-.9-.1-.3-.2-.6-.4-.8-.2-.2-.4-.3-.7-.3-.3 0-.6.1-.8.4s-.4.6-.6 1c-.1.4-.2.8-.3 1.3s.2 1.1.2 1.6z"/>
    <path class="st0" d="M172.1 39.4V39c0-.1 0-.2.1-.4.1-.1.2-.2.4-.3.2-.1.5-.2.9-.3.4-.1.7-.2 1-.2.3 0 .5 0 .6.1.2.1.3.2.4.4.1.2.2.4.3.7.1.1.1.3.1.4 0 .1.1.3.1.5.1.2.1.4.3.7s.3.6.5 1c.2.3.3.6.5.9.2.3.3.6.5.9.1.3.3.6.4.8.1.3.2.5.2.8 0 .3 0 .6-.1.9-.1.3-.2.5-.3.8.4-.3.7-.6.9-1 .3-.3.5-.6.6-.9.2-.3.3-.5.4-.8.1-.2.2-.4.2-.5.1-.2.2-.2.3-.2.1 0 .2 0 .2.1s.1.3.1.5v.6c0 .2-.1.5-.2.7-.1.2-.2.5-.3.7-.2.4-.5.8-.9 1.1-.4.4-.8.7-1.4 1-.5.3-1.2.6-1.9.8-.7.2-1.5.3-2.4.4-.9 0-1.6-.1-2.1-.5s-.8-1-.9-1.7v-.5-.6c0-.2.1-.3.1-.5.1-.1.2-.2.3-.2h.6c.3 0 .5 0 .8.1.3.1.5.1.7.2.2.1.3.2.3.4v.5c0 .2-.1.3-.1.5 0 .1-.1.3-.1.4v.3c0 .1 0 .2.1.2.1.1.1.1.3.1.4 0 .7-.1.9-.4.2-.2.4-.6.3-1 0-.3-.1-.6-.2-1.1s-.4-1-.6-1.6c-.2-.3-.3-.7-.5-1-.2-.3-.3-.6-.4-.8 0 .1 0 .3-.1.5 0 .2-.1.5-.2.8s-.2.7-.3 1.2-.3 1-.5 1.6c-.1.2-.1.3-.2.4-.1.1-.2.1-.3.1-.1 0-.2 0-.3-.1l-.3-.3c-.1-.1-.1-.3-.1-.5s0-.4.1-.6c.2-.5.4-1.1.6-1.5.1-.5.2-.9.3-1.3.1-.4.1-.8.2-1.1s0-.6 0-.9V40c0-.1 0-.3-.1-.5l.2-.1z"/>
    <path class="st0" d="M179.8 38.9c.1-.1.2-.2.3-.4s.4-.2.6-.3c.2-.1.5-.2.7-.2.3-.1.5-.1.7-.1.1 0 .3 0 .3.1.1.1.2.1.2.3s.1.2.1.4v4.6c0 .5 0 1 .1 1.4 0 .4.1.8.2 1 .1.3.2.4.4.4s.4-.1.6-.2c.2-.2.4-.3.6-.6.2-.2.4-.5.5-.7s.3-.5.4-.7l.3-.6c.1-.1.1-.2.2-.2s.2 0 .2.1.1.2.1.3v.7c0 .2-.1.5-.2.8-.1.3-.3.6-.5 1-.2.3-.4.7-.7 1s-.5.6-.9.9c-.3.3-.7.5-1 .7-.4.2-.8.3-1.2.3-.3 0-.6-.1-.8-.3-.2-.2-.4-.5-.6-.8-.2-.3-.3-.7-.4-1.1s-.2-.8-.2-1.1c0-.2 0-.3-.1-.5s0-.3 0-.4v-.3c0-.2 0-.5-.1-.9 0-.4 0-.8-.1-1.2s0-.9 0-1.3v-1.2s.2-.7.3-.9zm.1-4.3c0-.3 0-.6.1-1s.2-.6.4-.9.4-.5.6-.6c.2-.2.4-.3.7-.3.3 0 .5 0 .7.2.2.1.3.3.4.4.1.2.2.4.2.6s.1.4.1.6c0 .4 0 .8-.1 1.1-.1.3-.3.6-.4.8s-.4.4-.6.5c-.2.1-.4.2-.6.2-.3 0-.5 0-.7-.1-.2-.1-.3-.2-.5-.4l-.3-.6v-.5z"/>
    <path class="st0" d="M191.2 38l.2-.2.2-.2c.1-.1.2-.1.4-.2.1-.1.3-.1.4-.2.1 0 .3-.1.4-.1.1 0 .3-.1.3-.1h.6s.3.1.3.2c.1.1.1.2.2.3v.4c0 .5 0 1 .1 1.6 0 .6.1 1.2.1 1.9v2.1c0 .7 0 1.4-.1 2.2.3 0 .6-.1.9-.3.3-.2.5-.4.7-.6.2-.2.4-.5.6-.8s.3-.5.4-.7l.3-.6s.1-.2.2-.2.2 0 .2.1.1.2.1.3v.7c0 .3-.2.6-.4 1s-.5.8-.8 1.3c-.3.4-.7.8-1.1 1.2s-.8.7-1.3.9c-.1.7-.3 1.4-.5 2.1-.2.6-.5 1.2-.8 1.7-.3.5-.7.9-1.2 1.2s-1 .5-1.7.5h-1s-.7-.1-1.1-.3c-.3-.2-.6-.4-.9-.7s-.4-.7-.4-1.3c0-.2 0-.4.1-.6l.3-.6c.1-.2.3-.3.4-.5.2-.1.3-.2.5-.2s.4.1.5.2c.1.1.2.3.3.5.1.2.1.5.2.7 0 .3.1.5.2.7.1.2.2.4.3.5.1.1.3.2.5.2.4 0 .6-.1.8-.4.2-.2.4-.5.5-.9s.2-.9.2-1.4v-1.7c-.2.2-.4.3-.7.4s-.5.2-.8.2c-.3 0-.6 0-.9-.1-.4-.1-.8-.2-1.3-.4-.4-.2-.8-.5-1.2-.8s-.6-.8-.9-1.3-.4-1.2-.4-1.9c0-.4 0-.8.1-1.2.1-.6.3-1.2.5-1.8.3-.6.6-1.1 1-1.5s.9-.8 1.4-1.1c.5-.3 1.1-.4 1.8-.5h.7l.6.3zm-.7 8.5c.1 0 .2 0 .4-.1.1-.1.2-.2.3-.4l-.2-4.1c0-.3-.1-.7-.1-1 0-.3-.1-.7-.1-.9-.1-.3-.2-.5-.3-.7-.1-.2-.3-.3-.5-.3-.3 0-.5.1-.7.3-.2.2-.4.4-.5.7-.1.3-.3.6-.3 1-.1.4-.2.7-.2 1.1v1.1c0 .7.1 1.2.3 1.7.2.4.3.8.6 1 .2.3.4.4.7.5s.4.1.6.1z"/>
    <path class="st0" d="M196.5 38.7c0-.4.1-.7.2-.9s.3-.5.4-.6.3-.3.5-.4.4-.2.6-.2c.3-.1.6-.1.8 0s.3.2.4.3.2.3.2.4c0 .2 0 .3.1.4v2c.1-.3.3-.6.5-.9.2-.3.4-.6.6-.8.2-.2.5-.4.8-.6s.6-.2.9-.2c.4 0 .7 0 1 .1.3.1.5.3.7.5.2.2.4.4.5.7l.3.9c.1.3.1.7.2 1 0 .4 0 .7.1 1.1v2.6c0 .2 0 .3.1.5 0 .2.1.3.2.4.1.1.2.2.3.2.2 0 .4-.1.6-.2.2-.1.4-.3.5-.5.2-.2.3-.4.5-.6.1-.2.3-.4.4-.6s.2-.4.3-.5.1-.3.2-.3c.1-.1.2-.2.3-.2.1 0 .1 0 .2.1 0 .1.1.2.1.3 0 .1 0 .2-.1.5s-.2.6-.3 1c-.2.4-.3.8-.6 1.2-.2.4-.5.8-.8 1.2s-.7.7-1.1.9c-.4.3-.9.4-1.4.4-.4 0-.8-.1-1.1-.3s-.5-.5-.7-.8c-.2-.3-.3-.7-.4-1.1-.1-.4-.1-.9-.2-1.3v-.5-.5-.9-1c0-.3-.1-.6-.2-.8-.1-.2-.2-.4-.4-.3-.3 0-.6.2-.8.5-.2.3-.4.7-.5 1.2-.1.5-.2 1.1-.3 1.8-.1.7-.1 1.5-.1 2.3v1.1c0 .3-.1.5-.3.7-.1.1-.2.2-.4.3-.2.1-.4.1-.7.2h-.6s-.3 0-.4-.1l-.3-.3c-.1-.1-.2-.3-.2-.5-.1-.4-.2-.8-.3-1.3s-.1-1-.1-1.5v-1.3-.6-1.3-1.1-.8c-.2-.8-.2-.9-.2-1z"/>
  </g>
  <g id="Tom_McCarten">
    <path class="st0" d="M17.4 41.3h-.6c-.2 0-.4-.1-.6-.1-.2-.1-.3-.2-.4-.3-.1-.1-.2-.3-.2-.4 0-.4.1-.6.4-.7.4-.1.8-.3 1.1-.6s.6-.6.8-1c.2-.4.4-.8.5-1.3.1-.5.1-1 .1-1.5 0-.7-.1-1.4-.1-2.2-.1-.7-.1-1.4-.2-2.2-.2-1-.3-2-.4-3-.1-1-.2-2-.2-3.1v-3.1c0-1 .2-2 .4-3 .2-.9.5-1.8.9-2.6s.9-1.5 1.6-2.1c-1-.3-2-.6-3.2-.9-1.1-.3-2.3-.6-3.5-.8-.8-.2-1.6-.3-2.5-.4-.8-.1-1.7-.1-2.5-.1-.7 0-1.5.2-2.2.4-.8.3-1.4.6-2 1.1s-1.1 1-1.5 1.7c-.4.7-.5 1.5-.5 2.3 0 .7.2 1.3.4 1.9s.6 1.2 1 1.6c.4.5.9.8 1.4 1.1.5.3 1.1.4 1.8.4s1.2-.2 1.5-.4c.4-.3.6-.6.8-.9.2-.3.3-.6.4-.9.1-.3.3-.5.5-.5s.5.1.7.2c.2.1.4.3.6.6.2.2.3.5.4.7.1.3.2.5.2.7 0 .4-.1.9-.4 1.2s-.7.7-1.1 1c-.5.3-1 .5-1.5.7-.6.2-1.1.3-1.7.3-.9 0-1.8-.1-2.7-.5-.8-.4-1.6-.9-2.2-1.6-.6-.7-1.2-1.4-1.6-2.3-.4-.9-.6-1.8-.7-2.8 0-1.5.2-2.9.7-4.1.5-1.2 1.2-2.2 2.1-3S4.9 9.5 6 9c1-.5 2.1-.8 3.1-1 .3 0 .7-.1 1.1-.1.4 0 .8-.1 1.2-.1.8 0 1.6 0 2.3.1.7 0 1.5.1 2.3.3 1.2.2 2.3.5 3.5.8 1.2.3 2.3.7 3.5 1.1 1.2.4 2.3.8 3.5 1.2 1.2.4 2.3.8 3.5 1.1 1.2.3 2.4.6 3.6.8s2.4.3 3.6.2c.6 0 1.2-.1 1.7-.2s1-.2 1.4-.5c.1 0 .2-.1.4-.2.1-.1.3-.2.5-.3.2-.1.3-.2.5-.2h.3c.2 0 .4.1.6.2.2.2.3.4.3.8 0 .6-.2 1.1-.6 1.5s-.9.8-1.6 1c-.6.3-1.4.5-2.1.6-.8.1-1.5.2-2.3.2h-2.4c-.8-.1-1.6-.1-2.4-.2-.8-.1-1.7-.2-2.5-.4s-1.8-.3-2.7-.4c-.3 0-.6-.1-1-.2s-.7-.1-1-.1c-.6 0-1 .3-1.2.8-.2.5-.3 1.2-.2 2.2 0 .5.1 1.2.1 1.8s.2 1.4.3 2.1c.2 1.1.3 2.4.5 3.6.2 1.3.3 2.6.3 3.9v2.4c0 .6-.1 1.3-.2 2s-.3 1.4-.5 2.1c-.2.7-.5 1.3-.8 2-.3.6-.7 1.2-1.2 1.7s-1 .9-1.6 1.2c-.9.3-1.6.5-2.4.5z"/>
    <path class="st0" d="M37 27.1c.4.3.7.6 1.1 1 .2.2.3.4.4.6l.3.6c.2 0 .4 0 .7-.1s.6-.2.8-.4c.3-.1.6-.3.8-.5.3-.2.5-.3.6-.4.3-.2.5-.4.6-.5s.3-.2.5-.1c.1 0 .2.1.2.2s.1.2.1.4c0 .3-.1.6-.3.9-.2.3-.4.5-.7.8-.4.4-.9.9-1.5 1.3s-1.2.8-1.9 1c0 .8-.2 1.7-.5 2.5s-.6 1.6-1.1 2.3-1.1 1.3-1.9 1.7c-.8.4-1.6.7-2.6.7-.8 0-1.6-.1-2.3-.4-.7-.3-1.4-.7-2-1.2s-1.1-1.2-1.4-1.9c-.4-.8-.6-1.6-.6-2.6s.1-1.9.4-2.9c.3-1 .7-1.8 1.3-2.6.6-.8 1.2-1.4 2-1.9s1.7-.7 2.7-.8h1.1c.4 0 .8.1 1.2.2.4.1.8.4 1.1.7.6.4.8.8.9 1.4zm-3.9 9.3c.3 0 .6-.2.8-.5.2-.3.4-.7.5-1.1s.2-.9.3-1.4c0-.5.1-1 0-1.4v-.1c-.5-.2-.9-.5-1.3-1s-.6-1.1-.6-2c0-.4.1-.7.4-1 .3-.3.6-.5.9-.7-.1-.2-.2-.4-.3-.5-.1-.1-.3-.2-.5-.2s-.4.1-.6.2c-.3.2-.6.4-.8.8-.2.4-.4.8-.6 1.3-.1.5-.3 1-.3 1.6-.1.6-.1 1.1-.1 1.7 0 .8.1 1.5.3 2.1.2.6.4 1 .6 1.4.2.3.5.6.7.7s.4.1.6.1z"/>
    <path class="st0" d="M41 27.6c0-1.2.1-2.1.5-2.8s1-1 1.9-1.3c.4-.1.8-.1 1 0s.5.2.6.4l.3.6c0 .2.1.4.1.5v2.4c.2-.4.4-.8.7-1.2s.6-.7.9-1c.3-.3.7-.6 1-.7s.7-.3 1.1-.3c.9 0 1.5.2 2 .5s.8.9 1.1 1.5c.1.2.1.4.2.7.1.2.1.5.1.7.2-.4.4-.9.7-1.3.3-.4.6-.8.9-1.1s.7-.6 1.1-.8c.4-.2.8-.3 1.2-.3.6 0 1 .1 1.4.3.4.2.7.5 1 .8s.5.7.6 1.2.3.9.4 1.5c.1.5.1 1.1.2 1.6v4.4c0 .2.1.4.2.7s.3.3.5.4c.3 0 .5-.1.8-.3.3-.2.5-.4.7-.6.2-.3.4-.5.6-.8.2-.3.4-.6.5-.8s.3-.5.4-.7c.1-.2.2-.3.2-.4.1-.2.3-.3.4-.3.1 0 .2.1.2.2s.1.3.1.4c0 .1 0 .3-.1.6s-.3.8-.5 1.3-.5 1-.8 1.6c-.3.6-.7 1.1-1.1 1.6s-1 .9-1.5 1.2c-.6.3-1.2.5-1.9.5-.6 0-1.1-.1-1.4-.4-.4-.3-.7-.6-.9-1.1s-.4-1-.5-1.5-.2-1.2-.2-1.8V33v-.7-1.2-1.4c0-.4-.1-.8-.2-1.1-.1-.3-.3-.5-.5-.5s-.4.1-.7.3c-.2.2-.5.5-.7.9-.2.5-.4 1.1-.5 1.9-.1.8-.2 1.9-.2 3.1v2.5c0 .6-.1 1.1-.4 1.4-.2.2-.4.3-.6.4s-.6.2-1.2.2h-.8s-.4-.1-.5-.2c-.1-.1-.2-.3-.3-.5s-.1-.4-.1-.7c0-.1 0-.4-.1-.7s0-.8 0-1.6c0-.7 0-1.5-.1-2.3 0-.9-.1-1.8-.3-2.9-.1-.5-.2-.9-.3-1.2-.1-.3-.3-.5-.5-.5-.4 0-.8.2-1.1.6-.3.4-.5 1-.7 1.7-.2.7-.3 1.5-.4 2.4-.1.9-.1 1.9-.1 2.9v1.5c0 .4-.2.8-.4 1-.1.1-.3.3-.6.4-.3.1-.6.2-1 .2h-.5c-.2 0-.3 0-.5-.1-.1-.1-.3-.2-.4-.4-.1-.2-.2-.4-.3-.8 0-.1-.1-.4-.2-.9s-.2-1.1-.2-2c0-.6-.1-1.3-.1-1.9v-2-1.5-.6-.3c-.2-.3-.2-.5-.2-.8z"/>
    <path class="st0" d="M78.9 8.6c.2 1 .5 2 .8 3.1s.6 2.1 1 3.2c.3 1.1.6 2.2 1 3.3.3 1.1.6 2.2.8 3.2.2-.7.4-1.5.6-2.4.2-.9.5-1.8.8-2.8.3-.9.6-1.9.8-2.8.3-.9.6-1.8.9-2.5.3-.7.5-1.3.8-1.8.2-.5.5-.8.7-.8.6 0 1.1.2 1.6.6.5.4.7.9.9 1.6 0 .8 0 1.5-.1 2.3 0 .7-.1 1.5-.1 2.2-.1.7-.1 1.5-.1 2.2v2.2c0 1.4.1 2.7.3 4 .2 1.2.3 2.4.6 3.6.2 1.1.5 2.2.9 3.3.3 1 .7 2.1 1.2 3.1.3.7.6 1.3.9 1.8.3.5.6.9.8 1.3.1.2.2.4.2.6v.4l-.3 1.5c-.1.5-.3 1-.5 1.5s-.5.8-.8 1.2c-.6.3-1 .4-1.6.4-.4 0-.8-.2-1.2-.6-.4-.4-.8-1-1.2-1.8-.4-.8-.8-1.6-1.1-2.6s-.7-2.1-1-3.2c-.3-1.1-.5-2.3-.7-3.4-.2-1.2-.3-2.3-.4-3.4 0-.4-.1-.8-.1-1.2 0-.4-.1-.8-.1-1.2 0-.4-.1-.8-.1-1.2 0-.4-.1-.9-.1-1.3-.2.6-.3 1.3-.4 2.1-.1.8-.2 1.6-.3 2.5l-.3 2.7c-.1.9-.2 1.9-.3 2.8-.1.9-.2 1.6-.3 2.2-.1.5-.1 1-.2 1.4s-.1.6-.2.9c-.1.2-.1.5-.2.7-.1.2-.1.4-.2.6s-.2.4-.3.5c-.1.2-.2.3-.3.4-.1.1-.3.1-.5.2-.1 0-.3 0-.5-.1s-.3-.2-.5-.3c-.2-.1-.3-.4-.4-.6s-.3-.6-.4-1c-.1-.3-.1-.5-.2-.7 0-.2-.1-.5-.1-.7 0-.3 0-.6-.1-.9 0-.3 0-.7-.1-1.2-.2-2.1-.4-4.1-.7-6s-.6-3.7-1.1-5.4c0 1.3 0 2.5-.1 3.7-.1 1.3-.3 2.7-.5 4.1-.2 1.4-.6 2.9-.9 4.2-.4 1.4-.8 2.7-1.3 3.9-.5 1.2-1 2.3-1.6 3.3s-1.2 1.7-1.9 2.3-1.4.9-2.1.9c-.3 0-.6 0-.8-.2-.2-.1-.4-.3-.6-.5-.1-.2-.3-.4-.3-.7s-.1-.5-.1-.8c0-.6.1-1.1.4-1.5.3-.3.8-.6 1.6-.8.8-.3 1.6-.8 2.2-1.5S72.6 37 73 36c.4-1.1.8-2.3 1.1-3.6.3-1.3.5-2.7.7-4.1.2-1.4.2-2.9.3-4.3v-4.2c0-.8-.1-1.5-.1-2.3-.1-.7-.1-1.5-.3-2.2-.1-.7-.2-1.5-.4-2.2-.1-.2-.2-.6-.3-1s-.3-.9-.4-1.3c-.1-.4-.3-.9-.4-1.2s-.2-.7-.2-.8c0-.3.1-.7.3-1.1s.5-.8.9-1.2c.4-.5.8-.8 1.3-1.1.4-.2.8-.4 1.2-.4.3 0 .6.1.8.4.2.2.4.6.6.9.2.4.3.8.4 1.2.2.4.3.8.4 1.1z"/>
    <path class="st0" d="M104.2 25.9c0 .2 0 .5-.1.8s-.2.5-.4.8l-.6.6s-.5.2-.7.3c-.3 0-.5-.1-.6-.3s-.2-.4-.2-.7-.1-.6-.1-.9c0-.3 0-.6-.1-.9 0-.3-.1-.5-.3-.7-.1-.2-.3-.3-.6-.3-.4 0-.8.2-1.1.5-.3.3-.6.8-.8 1.3-.2.5-.3 1.1-.4 1.8-.1.6-.1 1.3-.1 1.9 0 .9.1 1.6.3 2.2.2.6.5 1 .8 1.4s.6.6 1 .7c.4.1.7.2 1.1.2.6 0 1.1-.2 1.6-.4s.9-.6 1.3-.9c.4-.4.7-.8 1-1.2.3-.4.5-.8.8-1.2.2-.4.4-.7.5-.9s.2-.4.3-.4c.1 0 .2.1.3.2.1.1.1.3 0 .4-.1.3-.2.7-.3 1.1-.1.5-.3.9-.5 1.4s-.5 1-.9 1.5c-.3.5-.8 1-1.3 1.4-.5.4-1.1.8-1.8 1-.7.3-1.5.4-2.4.5-.7 0-1.4-.1-2.2-.4-.7-.3-1.4-.7-1.9-1.2-.6-.5-1.1-1.2-1.4-1.9-.4-.8-.6-1.6-.6-2.6s.1-1.9.4-2.9.7-1.8 1.3-2.6c.6-.8 1.2-1.4 2-1.9s1.7-.7 2.7-.8h1.2c.4 0 .8.2 1.2.4.4.2.7.5 1 .9.4.5.5 1 .6 1.8z"/>
    <path class="st0" d="M127.2 29.9c.2-.3.3-.5.4-.6.1-.2.2-.3.3-.4.1-.1.2-.1.3-.2h.3c.1 0 .2 0 .2.1s.1.2.1.4v.5c0 .2-.1.3-.1.4-.3 1.1-.7 2.2-1.4 3s-1.5 1.6-2.4 2.2-2 1.1-3.1 1.4c-1.1.3-2.2.5-3.3.5-1.3 0-2.4-.1-3.5-.4-1.1-.3-2.1-.8-3.1-1.3-.9-.6-1.8-1.3-2.5-2.1s-1.4-1.7-1.9-2.6c-.5-.9-.9-1.9-1.2-2.9-.3-1-.5-2-.5-3 0-1.6.1-3.2.5-4.7s.9-2.9 1.6-4.3c.7-1.3 1.6-2.5 2.6-3.7 1-1.1 2.2-2.1 3.5-2.9 1.3-.8 2.7-1.4 4.2-1.9s3.1-.7 4.8-.8h1.4c.5 0 1 .1 1.5.2s1.1.2 1.6.3c.5.1 1.1.2 1.6.4.3.1.7.2 1.1.4.4.1.8.3 1.2.6s.7.5.9.8c.3.3.4.7.5 1.1 0 .3 0 .6-.2.9-.1.3-.3.5-.4.7s-.4.4-.6.5c-.2.1-.5.2-.7.2-.2 0-.4 0-.6-.1-.2-.1-.3-.2-.5-.3l-.4-.4c-.1-.1-.2-.3-.4-.4-.8-.7-1.7-1.3-2.7-1.6-1-.4-2-.5-3-.5-1.3 0-2.5.3-3.6.7-1.1.4-2 1-2.8 1.7-.8.7-1.5 1.5-2.1 2.5-.6.9-1.1 1.9-1.5 3s-.6 2.2-.8 3.3-.2 2.2-.2 3.3c0 1.4.2 2.7.6 4 .4 1.3.9 2.3 1.5 3.3.7.9 1.5 1.7 2.5 2.2 1 .5 2.1.8 3.4.7 1.2 0 2.1-.2 2.9-.5.8-.3 1.4-.6 2-1 .5-.4 1-.8 1.3-1.3.2-.5.5-.9.7-1.4z"/>
    <path class="st0" d="M138.5 23.6v6c0 .5.1 1 .2 1.4.1.4.2.7.3.9s.3.4.5.3c.4 0 .7-.2 1.1-.6.3-.4.7-.8 1-1.2.3-.4.5-.9.7-1.2.2-.4.3-.6.4-.7.1-.2.3-.3.4-.3.1 0 .2 0 .2.1.1.1.1.2.1.3 0 0 0 .2-.1.6-.1.4-.2.8-.5 1.3-.2.5-.5 1.1-.8 1.7-.3.6-.7 1.2-1.2 1.7s-1 1-1.6 1.3c-.6.4-1.3.5-2 .6-.4 0-.8-.1-1.1-.3s-.6-.6-.8-1c-.3.4-.7.8-1.2 1.1s-1 .4-1.7.4h-1c-.6-.1-1.1-.2-1.7-.5-.6-.2-1.2-.6-1.7-1.1-.5-.5-.9-1.1-1.2-1.8s-.5-1.6-.5-2.7c0-.9.1-1.7.3-2.6s.6-1.6 1-2.4c.4-.7 1-1.3 1.6-1.9s1.4-.9 2.2-1.1c.2-.1.4-.1.6-.1h.7c.3 0 .7.1 1.1.2.4.1.8.3 1.2.6.2 0 .4-.1.6-.2.3-.1.5-.2.8-.3.3-.1.6-.1.8-.1s.5.1.7.2c.1.1.2.2.2.3s.1.3.2.5.2.4.2.6zm-5 9.9c.2 0 .4-.1.6-.2.2-.1.3-.4.5-.7 0-.2 0-.4-.1-.7 0-.3 0-.7-.1-1.1 0-.4 0-.8-.1-1.3 0-.5 0-.9-.1-1.4l-.1-2.5c0-.1 0-.3-.1-.6 0-.2-.1-.5-.2-.7s-.2-.4-.4-.6-.4-.2-.6-.2c-.4 0-.8.2-1.1.5-.3.3-.6.8-.8 1.3-.2.5-.3 1.1-.4 1.8-.1.6-.1 1.3-.1 1.9 0 .9.1 1.6.3 2.2.2.6.4 1.1.7 1.4.3.4.6.6.9.7.6.2.9.2 1.2.2z"/>
    <path class="st0" d="M151.2 28.7c-.4 0-.8 0-1.2-.1s-.7-.3-1-.5c-.3-.2-.5-.5-.7-.8-.2-.3-.3-.7-.3-1.1v-.5s.1-.3.1-.4c0-.1.1-.2.2-.3.1-.1.1-.2.2-.3 0-.1.1-.2.1-.3s.1-.3 0-.5c0-.3-.1-.7-.2-1.2-.3.1-.5.2-.8.5-.2.3-.4.6-.6 1-.2.4-.3.9-.4 1.3s-.2 1-.3 1.5c-.1.5-.2 1-.2 1.5s-.1.9-.1 1.2v3.9c0 .5-.1.9-.3 1.1-.2.3-.4.5-.6.6-.3.1-.5.2-.8.2-.3 0-.6 0-.9.1-.4 0-.6-.1-.9-.4-.2-.3-.3-.6-.3-.9-.1-.8-.1-1.5-.1-2 0-.6-.1-1.1-.1-1.5 0-.4-.1-.8-.1-1.2 0-.4 0-.7-.1-1.1-.1-1.1-.1-2.2-.1-3.1 0-.9 0-1.7.1-2.3.1-.7.2-1.2.5-1.5.3-.4.6-.6.9-.8.3-.2.6-.3.9-.4s.5-.1.6-.1c.2 0 .5 0 .7.2.2.1.4.3.5.6.1.3.2.5.2.9v1.4c.2-.5.4-1 .7-1.5.3-.5.6-.9.9-1.3.4-.4.8-.7 1.2-.9.4-.2.9-.3 1.4-.4h.7c.3 0 .6.1.9.2l.6.3c.2.1.4.3.6.5.2.2.3.5.4.8.1.3.2.7.2 1.1 0 .4-.1.8-.3 1.3-.2.5-.4.9-.6 1.4s-.6.8-.9 1.2c-.3.4-.7.6-1.1.8h.1l.1.1s.1 0 .2.1h.4c.6 0 1.1-.1 1.5-.4.4-.2.8-.5 1.1-.8.3-.3.6-.6.8-1 .2-.3.5-.6.7-.9.2-.2.4-.4.7-.5.2-.1.5-.2.8-.2.3 0 .4.3.5.9 0 .2 0 .4-.2.6-.1.2-.3.4-.4.7-.3.4-.6.7-1.1 1.1-.4.4-.9.7-1.4 1s-1.1.6-1.6.7-1.2.4-1.8.4z"/>
    <path class="st0" d="M154.7 9.1c.1-.7.4-1.2.8-1.5.4-.3 1-.6 1.7-.7.4-.1.7-.1.9-.1s.4 0 .6.1c.1.1.3.2.3.3.1.1.2.2.2.3.1.3.2.6.2 1v3.1s0 1.9-.1 2.8c0 .9-.1 1.7-.1 2.4 0 .8-.1 1.4-.1 2.1l1.7-.1h1c.3 0 .5 0 .7-.1h.4c.1 0 .2 0 .3.1s.1.1.1.2v1.1c0 .2-.1.4-.3.5-.2.1-.4.2-.8.3-.3.1-.8.1-1.4.1l-1.8.1v6.5c0 .6 0 1.2.1 1.8 0 .8.1 1.4.4 1.9.2.4.5.6.9.6.3 0 .6-.1 1-.4.3-.3.7-.6 1-1 .3-.4.5-.8.7-1.1.2-.3.3-.6.4-.8.1-.2.2-.4.3-.5.1-.1.2-.2.3-.2.2 0 .3.1.3.4 0 .2 0 .4-.1.6-.1.3-.2.6-.4 1s-.4.9-.6 1.3c-.3.5-.5.9-.9 1.4-.3.5-.7.9-1.1 1.3-.4.4-.9.7-1.4.9-.5.2-1 .4-1.6.4-.5 0-.9-.1-1.2-.3s-.6-.5-.8-.9c-.2-.4-.4-.8-.5-1.3l-.3-1.5c-.1-.5-.1-1-.2-1.6 0-.5-.1-1-.1-1.5-.1-1.2-.2-2.3-.2-3.5s-.1-2.3-.1-3.5H153s-.3-.1-.3-.2-.1-.2-.1-.3v-.7c0-.2.1-.4.3-.5.2-.1.4-.3.7-.3.3-.1.7-.1 1.2-.2v-1.4-.9-.8-1.2-1.4-1.6-1.5c-.2-.5-.2-.8-.1-1z"/>
    <path class="st0" d="M167.6 27.9c0 .9.2 1.6.4 2.1s.5 1 .9 1.4c.4.3.7.6 1.1.7s.8.2 1.1.2c.4 0 .9-.1 1.3-.3.4-.2.8-.4 1.1-.6.3-.3.6-.5.9-.8s.5-.6.7-.9c.2-.4.4-.7.6-1 .1-.3.3-.5.4-.7.1-.2.2-.3.3-.4s.2-.2.3-.2c.1 0 .2.1.3.2 0 .1.1.2.1.4v.5c0 .2-.1.3-.1.4-.1.2-.2.5-.3.8-.2.5-.5 1-.8 1.6-.4.6-.8 1.2-1.4 1.7-.6.5-1.2 1-1.9 1.4-.7.4-1.6.6-2.6.6-.7 0-1.5-.1-2.2-.4s-1.5-.7-2.1-1.2c-.6-.5-1.2-1.2-1.6-2-.4-.8-.6-1.6-.7-2.6 0-.8.1-1.7.3-2.5.2-.8.5-1.6 1-2.3s1-1.3 1.6-1.9 1.3-.9 2.1-1.1c.4-.1.9-.2 1.4-.2.7 0 1.4.1 2 .3.6.2 1.1.5 1.6.9.4.4.8.9 1.1 1.5.3.6.4 1.3.4 2.1 0 .4 0 .8-.1 1.2s-.2.8-.4 1.1c-.2.3-.5.6-.8.8-.4.2-.8.3-1.3.3s-1 0-1.4-.1c-.5-.1-.9-.2-1.3-.3s-.7-.3-1-.4c-.2-.2-.4-.3-.4-.4v-.2c0-.1.1-.2.1-.3.1-.1.1-.2.2-.2s.1-.1.2-.1h.8c.2 0 .4 0 .6.1h.6c.3 0 .6 0 .8-.2.2-.1.3-.4.3-.8 0-.2 0-.5-.1-.9 0-.4-.1-.8-.2-1.2s-.3-.8-.5-1.1-.5-.4-.9-.4-.8.2-1.1.5c-.3.3-.6.8-.8 1.3-.2.5-.3 1.1-.4 1.8-.2.5-.2 1.1-.2 1.8z"/>
    <path class="st0" d="M175.4 22.3c0-.5.1-.9.3-1.2.2-.3.3-.6.6-.8.2-.2.5-.4.7-.5.3-.1.5-.2.8-.3.4-.1.8-.1 1 0 .2.1.4.2.6.4l.3.6c0 .2.1.4.1.5 0 .4 0 .9-.1 1.3 0 .4 0 .8-.1 1.3.2-.4.4-.8.7-1.2.3-.4.6-.7.9-1 .3-.3.7-.6 1-.7.4-.2.7-.3 1.1-.3.5 0 1 .1 1.4.2.4.1.7.4 1 .6.3.3.5.6.7 1 .2.4.3.8.4 1.2s.2.9.2 1.4c0 .5.1 1 .1 1.5V29.7c0 .2 0 .5.1.7 0 .2.1.4.2.5.1.2.2.2.4.2.3 0 .5-.1.8-.3.3-.2.5-.4.7-.6.2-.3.4-.5.6-.8.2-.3.4-.6.5-.8.2-.3.3-.5.4-.7.1-.2.2-.3.2-.4.1-.2.3-.3.4-.3.1 0 .2.1.2.2s.1.3.1.4c0 .1 0 .3-.1.6-.1.4-.3.8-.5 1.3s-.5 1-.8 1.6c-.3.6-.7 1.1-1.1 1.6-.4.5-1 .9-1.5 1.2s-1.2.5-1.9.5c-.6 0-1.1-.1-1.4-.4-.4-.3-.7-.6-.9-1.1-.2-.4-.4-1-.5-1.5-.1-.6-.2-1.2-.2-1.8v-.7-.7-1.2-1.4c0-.4-.1-.8-.2-1.1-.1-.3-.3-.5-.5-.5-.4 0-.7.2-1 .6-.3.4-.5.9-.7 1.6-.2.7-.3 1.5-.4 2.4-.1.9-.1 1.9-.1 3v1.5c0 .4-.2.7-.4 1-.1.1-.3.3-.5.4-.2.1-.5.2-.9.2h-.7c-.2 0-.4-.1-.5-.1-.1-.1-.3-.2-.4-.4s-.2-.4-.3-.7c-.2-.5-.3-1.1-.4-1.7s-.1-1.4-.2-2 0-1.2 0-1.7v-.8-1.7-1.5-1.1c-.2-.7-.2-.9-.2-.9z"/>
  </g>
</svg>
